<mxfile host="app.diagrams.net" modified="2022-11-21T05:00:41.609Z" agent="5.0 (Windows NT 10.0; Win64; x64) AppleWebKit/537.36 (KHTML, like Gecko) Chrome/107.0.0.0 Safari/537.36" etag="-xOVD_CrP7tBTlpYdicf" version="20.5.3" type="github">
  <diagram id="8UVtn7lZOxFwys3fmMaX" name="Page-1">
    <mxGraphModel dx="1157" dy="1700" grid="1" gridSize="10" guides="1" tooltips="1" connect="1" arrows="1" fold="1" page="1" pageScale="1" pageWidth="850" pageHeight="1100" math="0" shadow="0">
      <root>
        <mxCell id="0" />
        <mxCell id="1" parent="0" />
        <mxCell id="g8sogrBZV49SCJf5IFU3-1" value="Entitas" style="rounded=0;whiteSpace=wrap;html=1;" vertex="1" parent="1">
          <mxGeometry x="130" y="90" width="120" height="60" as="geometry" />
        </mxCell>
        <mxCell id="g8sogrBZV49SCJf5IFU3-2" value="Relasi" style="rhombus;whiteSpace=wrap;html=1;" vertex="1" parent="1">
          <mxGeometry x="390" y="-90" width="80" height="80" as="geometry" />
        </mxCell>
        <mxCell id="g8sogrBZV49SCJf5IFU3-4" value="Atribut" style="ellipse;whiteSpace=wrap;html=1;" vertex="1" parent="1">
          <mxGeometry x="610" y="-90" width="120" height="80" as="geometry" />
        </mxCell>
        <mxCell id="g8sogrBZV49SCJf5IFU3-5" value="Pustakawan" style="rounded=0;whiteSpace=wrap;html=1;" vertex="1" parent="1">
          <mxGeometry x="370" y="40" width="120" height="60" as="geometry" />
        </mxCell>
        <mxCell id="g8sogrBZV49SCJf5IFU3-6" value="Peminjaman" style="rounded=0;whiteSpace=wrap;html=1;" vertex="1" parent="1">
          <mxGeometry x="250" y="130" width="120" height="60" as="geometry" />
        </mxCell>
        <mxCell id="g8sogrBZV49SCJf5IFU3-14" style="edgeStyle=orthogonalEdgeStyle;rounded=0;orthogonalLoop=1;jettySize=auto;html=1;entryX=0;entryY=0.5;entryDx=0;entryDy=0;" edge="1" parent="1" source="g8sogrBZV49SCJf5IFU3-7" target="g8sogrBZV49SCJf5IFU3-8">
          <mxGeometry relative="1" as="geometry" />
        </mxCell>
        <mxCell id="g8sogrBZV49SCJf5IFU3-7" value="Pendaftaran anggota" style="rounded=0;whiteSpace=wrap;html=1;" vertex="1" parent="1">
          <mxGeometry x="110" y="400" width="120" height="60" as="geometry" />
        </mxCell>
        <mxCell id="g8sogrBZV49SCJf5IFU3-8" value="Anggota" style="rounded=0;whiteSpace=wrap;html=1;" vertex="1" parent="1">
          <mxGeometry x="360" y="470" width="120" height="60" as="geometry" />
        </mxCell>
        <mxCell id="g8sogrBZV49SCJf5IFU3-9" value="Pegawai" style="rounded=0;whiteSpace=wrap;html=1;" vertex="1" parent="1">
          <mxGeometry x="520" y="120" width="120" height="60" as="geometry" />
        </mxCell>
        <mxCell id="g8sogrBZV49SCJf5IFU3-10" value="Buku" style="rounded=0;whiteSpace=wrap;html=1;" vertex="1" parent="1">
          <mxGeometry x="520" y="40" width="120" height="60" as="geometry" />
        </mxCell>
        <mxCell id="g8sogrBZV49SCJf5IFU3-18" style="edgeStyle=orthogonalEdgeStyle;rounded=0;orthogonalLoop=1;jettySize=auto;html=1;entryX=0.5;entryY=0.333;entryDx=0;entryDy=0;entryPerimeter=0;" edge="1" parent="1">
          <mxGeometry relative="1" as="geometry">
            <mxPoint x="430" y="191" as="sourcePoint" />
            <mxPoint x="430" y="216.6400000000001" as="targetPoint" />
            <Array as="points">
              <mxPoint x="430" y="211" />
              <mxPoint x="430" y="211" />
            </Array>
          </mxGeometry>
        </mxCell>
        <mxCell id="g8sogrBZV49SCJf5IFU3-11" value="Pengembalian" style="rounded=0;whiteSpace=wrap;html=1;" vertex="1" parent="1">
          <mxGeometry x="370" y="130" width="120" height="60" as="geometry" />
        </mxCell>
        <mxCell id="g8sogrBZV49SCJf5IFU3-20" value="" style="rhombus;whiteSpace=wrap;html=1;" vertex="1" parent="1">
          <mxGeometry x="390" y="190" width="80" height="80" as="geometry" />
        </mxCell>
        <mxCell id="g8sogrBZV49SCJf5IFU3-21" value="Pelanggan" style="rounded=0;whiteSpace=wrap;html=1;" vertex="1" parent="1">
          <mxGeometry x="360" y="540" width="120" height="60" as="geometry" />
        </mxCell>
        <mxCell id="g8sogrBZV49SCJf5IFU3-22" value="Pegawai" style="rounded=0;whiteSpace=wrap;html=1;" vertex="1" parent="1">
          <mxGeometry x="360" y="1000" width="120" height="60" as="geometry" />
        </mxCell>
        <mxCell id="g8sogrBZV49SCJf5IFU3-48" value="" style="edgeStyle=orthogonalEdgeStyle;rounded=0;orthogonalLoop=1;jettySize=auto;html=1;" edge="1" parent="1" source="g8sogrBZV49SCJf5IFU3-23" target="g8sogrBZV49SCJf5IFU3-47">
          <mxGeometry relative="1" as="geometry" />
        </mxCell>
        <mxCell id="g8sogrBZV49SCJf5IFU3-23" value="Katagori Menu" style="rounded=0;whiteSpace=wrap;html=1;" vertex="1" parent="1">
          <mxGeometry x="140" y="1000" width="120" height="60" as="geometry" />
        </mxCell>
        <mxCell id="g8sogrBZV49SCJf5IFU3-37" style="edgeStyle=orthogonalEdgeStyle;rounded=0;orthogonalLoop=1;jettySize=auto;html=1;" edge="1" parent="1" source="g8sogrBZV49SCJf5IFU3-25" target="g8sogrBZV49SCJf5IFU3-27">
          <mxGeometry relative="1" as="geometry" />
        </mxCell>
        <mxCell id="g8sogrBZV49SCJf5IFU3-25" value="Pemesanan" style="rounded=0;whiteSpace=wrap;html=1;" vertex="1" parent="1">
          <mxGeometry x="360" y="790" width="120" height="60" as="geometry" />
        </mxCell>
        <mxCell id="g8sogrBZV49SCJf5IFU3-26" value="Meja" style="rounded=0;whiteSpace=wrap;html=1;" vertex="1" parent="1">
          <mxGeometry x="520" y="680" width="80" height="40" as="geometry" />
        </mxCell>
        <mxCell id="g8sogrBZV49SCJf5IFU3-38" style="edgeStyle=orthogonalEdgeStyle;rounded=0;orthogonalLoop=1;jettySize=auto;html=1;" edge="1" parent="1" source="g8sogrBZV49SCJf5IFU3-27" target="g8sogrBZV49SCJf5IFU3-22">
          <mxGeometry relative="1" as="geometry" />
        </mxCell>
        <mxCell id="g8sogrBZV49SCJf5IFU3-27" value="Memanajemen" style="rhombus;whiteSpace=wrap;html=1;" vertex="1" parent="1">
          <mxGeometry x="360" y="880" width="120" height="80" as="geometry" />
        </mxCell>
        <mxCell id="g8sogrBZV49SCJf5IFU3-29" style="edgeStyle=orthogonalEdgeStyle;rounded=0;orthogonalLoop=1;jettySize=auto;html=1;entryX=0.5;entryY=1;entryDx=0;entryDy=0;" edge="1" parent="1" source="g8sogrBZV49SCJf5IFU3-28" target="g8sogrBZV49SCJf5IFU3-26">
          <mxGeometry relative="1" as="geometry" />
        </mxCell>
        <mxCell id="g8sogrBZV49SCJf5IFU3-72" style="edgeStyle=orthogonalEdgeStyle;rounded=0;orthogonalLoop=1;jettySize=auto;html=1;" edge="1" parent="1" source="g8sogrBZV49SCJf5IFU3-28">
          <mxGeometry relative="1" as="geometry">
            <mxPoint x="430" y="760" as="targetPoint" />
          </mxGeometry>
        </mxCell>
        <mxCell id="g8sogrBZV49SCJf5IFU3-28" value="memilih" style="rhombus;whiteSpace=wrap;html=1;" vertex="1" parent="1">
          <mxGeometry x="520" y="730" width="80" height="80" as="geometry" />
        </mxCell>
        <mxCell id="g8sogrBZV49SCJf5IFU3-35" value="1" style="edgeStyle=orthogonalEdgeStyle;rounded=0;orthogonalLoop=1;jettySize=auto;html=1;exitX=0.5;exitY=0;exitDx=0;exitDy=0;entryX=0.5;entryY=1;entryDx=0;entryDy=0;" edge="1" parent="1" source="g8sogrBZV49SCJf5IFU3-31" target="g8sogrBZV49SCJf5IFU3-21">
          <mxGeometry relative="1" as="geometry" />
        </mxCell>
        <mxCell id="g8sogrBZV49SCJf5IFU3-36" value="N" style="edgeStyle=orthogonalEdgeStyle;rounded=0;orthogonalLoop=1;jettySize=auto;html=1;exitX=0.5;exitY=1;exitDx=0;exitDy=0;entryX=0.5;entryY=0;entryDx=0;entryDy=0;" edge="1" parent="1" source="g8sogrBZV49SCJf5IFU3-31" target="g8sogrBZV49SCJf5IFU3-25">
          <mxGeometry relative="1" as="geometry" />
        </mxCell>
        <mxCell id="g8sogrBZV49SCJf5IFU3-31" value="melakukan" style="rhombus;whiteSpace=wrap;html=1;rounded=0;" vertex="1" parent="1">
          <mxGeometry x="380" y="650" width="80" height="80" as="geometry" />
        </mxCell>
        <mxCell id="g8sogrBZV49SCJf5IFU3-44" value="" style="edgeStyle=orthogonalEdgeStyle;rounded=0;orthogonalLoop=1;jettySize=auto;html=1;" edge="1" parent="1" source="g8sogrBZV49SCJf5IFU3-41" target="g8sogrBZV49SCJf5IFU3-43">
          <mxGeometry relative="1" as="geometry" />
        </mxCell>
        <mxCell id="g8sogrBZV49SCJf5IFU3-41" value="Menu" style="rounded=0;whiteSpace=wrap;html=1;" vertex="1" parent="1">
          <mxGeometry x="140" y="790" width="120" height="60" as="geometry" />
        </mxCell>
        <mxCell id="g8sogrBZV49SCJf5IFU3-45" style="edgeStyle=orthogonalEdgeStyle;rounded=0;orthogonalLoop=1;jettySize=auto;html=1;entryX=0;entryY=0.5;entryDx=0;entryDy=0;" edge="1" parent="1" source="g8sogrBZV49SCJf5IFU3-43" target="g8sogrBZV49SCJf5IFU3-25">
          <mxGeometry relative="1" as="geometry" />
        </mxCell>
        <mxCell id="g8sogrBZV49SCJf5IFU3-43" value="memesan" style="rhombus;whiteSpace=wrap;html=1;rounded=0;" vertex="1" parent="1">
          <mxGeometry x="260" y="700" width="80" height="80" as="geometry" />
        </mxCell>
        <mxCell id="g8sogrBZV49SCJf5IFU3-49" style="edgeStyle=orthogonalEdgeStyle;rounded=0;orthogonalLoop=1;jettySize=auto;html=1;" edge="1" parent="1" source="g8sogrBZV49SCJf5IFU3-47" target="g8sogrBZV49SCJf5IFU3-41">
          <mxGeometry relative="1" as="geometry" />
        </mxCell>
        <mxCell id="g8sogrBZV49SCJf5IFU3-47" value="memiliki" style="rhombus;whiteSpace=wrap;html=1;rounded=0;" vertex="1" parent="1">
          <mxGeometry x="150" y="900" width="80" height="80" as="geometry" />
        </mxCell>
        <mxCell id="g8sogrBZV49SCJf5IFU3-51" value="Password: teks" style="ellipse;whiteSpace=wrap;html=1;" vertex="1" parent="1">
          <mxGeometry x="690" y="670" width="120" height="80" as="geometry" />
        </mxCell>
        <mxCell id="g8sogrBZV49SCJf5IFU3-52" value="No&amp;nbsp; Hp: Angka" style="ellipse;whiteSpace=wrap;html=1;" vertex="1" parent="1">
          <mxGeometry x="611" y="550" width="120" height="80" as="geometry" />
        </mxCell>
        <mxCell id="g8sogrBZV49SCJf5IFU3-53" value="Nama" style="ellipse;whiteSpace=wrap;html=1;" vertex="1" parent="1">
          <mxGeometry x="540" y="470" width="120" height="80" as="geometry" />
        </mxCell>
        <mxCell id="g8sogrBZV49SCJf5IFU3-74" style="edgeStyle=orthogonalEdgeStyle;rounded=0;orthogonalLoop=1;jettySize=auto;html=1;" edge="1" parent="1" source="g8sogrBZV49SCJf5IFU3-54" target="g8sogrBZV49SCJf5IFU3-25">
          <mxGeometry relative="1" as="geometry">
            <Array as="points">
              <mxPoint x="880" y="930" />
              <mxPoint x="510" y="930" />
              <mxPoint x="510" y="820" />
            </Array>
          </mxGeometry>
        </mxCell>
        <mxCell id="g8sogrBZV49SCJf5IFU3-54" value="id Pelanggan:angka" style="ellipse;whiteSpace=wrap;html=1;" vertex="1" parent="1">
          <mxGeometry x="820" y="840" width="120" height="80" as="geometry" />
        </mxCell>
        <mxCell id="g8sogrBZV49SCJf5IFU3-55" value="Alamat: teks" style="ellipse;whiteSpace=wrap;html=1;" vertex="1" parent="1">
          <mxGeometry x="860" y="460" width="120" height="80" as="geometry" />
        </mxCell>
        <mxCell id="g8sogrBZV49SCJf5IFU3-56" value="Username:teks" style="ellipse;whiteSpace=wrap;html=1;" vertex="1" parent="1">
          <mxGeometry x="860" y="570" width="120" height="80" as="geometry" />
        </mxCell>
        <mxCell id="g8sogrBZV49SCJf5IFU3-57" value="Kapasitas" style="ellipse;whiteSpace=wrap;html=1;" vertex="1" parent="1">
          <mxGeometry x="860" y="670" width="120" height="80" as="geometry" />
        </mxCell>
        <mxCell id="g8sogrBZV49SCJf5IFU3-70" style="edgeStyle=orthogonalEdgeStyle;rounded=0;orthogonalLoop=1;jettySize=auto;html=1;entryX=1;entryY=0.5;entryDx=0;entryDy=0;" edge="1" parent="1" source="g8sogrBZV49SCJf5IFU3-59" target="g8sogrBZV49SCJf5IFU3-25">
          <mxGeometry relative="1" as="geometry">
            <Array as="points">
              <mxPoint x="600" y="930" />
              <mxPoint x="510" y="930" />
              <mxPoint x="510" y="820" />
            </Array>
          </mxGeometry>
        </mxCell>
        <mxCell id="g8sogrBZV49SCJf5IFU3-59" value="id pemesanan" style="ellipse;whiteSpace=wrap;html=1;" vertex="1" parent="1">
          <mxGeometry x="540" y="840" width="120" height="80" as="geometry" />
        </mxCell>
        <mxCell id="g8sogrBZV49SCJf5IFU3-73" style="edgeStyle=orthogonalEdgeStyle;rounded=0;orthogonalLoop=1;jettySize=auto;html=1;entryX=1;entryY=0.5;entryDx=0;entryDy=0;" edge="1" parent="1" source="g8sogrBZV49SCJf5IFU3-60" target="g8sogrBZV49SCJf5IFU3-25">
          <mxGeometry relative="1" as="geometry">
            <Array as="points">
              <mxPoint x="750" y="930" />
              <mxPoint x="510" y="930" />
              <mxPoint x="510" y="820" />
            </Array>
          </mxGeometry>
        </mxCell>
        <mxCell id="g8sogrBZV49SCJf5IFU3-60" value="id menu" style="ellipse;whiteSpace=wrap;html=1;" vertex="1" parent="1">
          <mxGeometry x="690" y="840" width="120" height="80" as="geometry" />
        </mxCell>
        <mxCell id="g8sogrBZV49SCJf5IFU3-61" value="jenis Pembayaran" style="ellipse;whiteSpace=wrap;html=1;" vertex="1" parent="1">
          <mxGeometry x="960" y="840" width="120" height="80" as="geometry" />
        </mxCell>
        <mxCell id="g8sogrBZV49SCJf5IFU3-62" value="Status" style="ellipse;whiteSpace=wrap;html=1;" vertex="1" parent="1">
          <mxGeometry x="1120" y="840" width="120" height="80" as="geometry" />
        </mxCell>
        <mxCell id="g8sogrBZV49SCJf5IFU3-63" value="id Pegawai" style="ellipse;whiteSpace=wrap;html=1;" vertex="1" parent="1">
          <mxGeometry x="540" y="940" width="120" height="80" as="geometry" />
        </mxCell>
        <mxCell id="g8sogrBZV49SCJf5IFU3-64" value="Jumlah Menu" style="ellipse;whiteSpace=wrap;html=1;" vertex="1" parent="1">
          <mxGeometry x="680" y="940" width="120" height="80" as="geometry" />
        </mxCell>
        <mxCell id="g8sogrBZV49SCJf5IFU3-79" style="edgeStyle=orthogonalEdgeStyle;rounded=0;orthogonalLoop=1;jettySize=auto;html=1;entryX=1;entryY=0.5;entryDx=0;entryDy=0;" edge="1" parent="1" source="g8sogrBZV49SCJf5IFU3-65" target="g8sogrBZV49SCJf5IFU3-25">
          <mxGeometry relative="1" as="geometry">
            <Array as="points">
              <mxPoint x="880" y="930" />
              <mxPoint x="510" y="930" />
              <mxPoint x="510" y="820" />
            </Array>
          </mxGeometry>
        </mxCell>
        <mxCell id="g8sogrBZV49SCJf5IFU3-65" value="&amp;nbsp;" style="ellipse;whiteSpace=wrap;html=1;" vertex="1" parent="1">
          <mxGeometry x="820" y="940" width="120" height="80" as="geometry" />
        </mxCell>
        <mxCell id="g8sogrBZV49SCJf5IFU3-66" value="Jumlah Pembayaran" style="ellipse;whiteSpace=wrap;html=1;" vertex="1" parent="1">
          <mxGeometry x="960" y="940" width="120" height="80" as="geometry" />
        </mxCell>
      </root>
    </mxGraphModel>
  </diagram>
</mxfile>
